# MagicaVoxel @ Ephtracy

# material
mtllib money.mtl
usemtl palette

# normals
vn -1 0 0
vn 1 0 0
vn 0 0 1
vn 0 0 -1
vn 0 -1 0
vn 0 1 0

# texcoords
vt 0.0175781 0.5
vt 0.0214844 0.5
vt 0.0449219 0.5

# verts
v -2 1 1.5
v -2 1 0.5
v -2 1 -0.5
v -2 2 1.5
v -2 2 0.5
v -2 2 -0.5
v -1 0 1.5
v -1 0 0.5
v -1 0 -0.5
v -1 1 2.5
v -1 1 1.5
v -1 1 0.5
v -1 1 -0.5
v -1 1 -1.5
v -1 2 2.5
v -1 2 1.5
v -1 2 0.5
v -1 2 -0.5
v -1 2 -1.5
v -1 3 1.5
v -1 3 0.5
v -1 3 -0.5
v 1 0 1.5
v 1 0 0.5
v 1 0 -0.5
v 1 1 2.5
v 1 1 1.5
v 1 1 0.5
v 1 1 -0.5
v 1 1 -1.5
v 1 2 2.5
v 1 2 1.5
v 1 2 0.5
v 1 2 -0.5
v 1 2 -1.5
v 1 3 1.5
v 1 3 -0.5
v 2 1 1.5
v 2 1 0.5
v 2 1 -0.5
v 2 2 1.5
v 2 2 0.5
v 2 2 -0.5
v -1 1 2.5
v -1 2 2.5
v 0 1 2.5
v 0 2 2.5
v 1 1 2.5
v 1 2 2.5
v -2 1 1.5
v -2 2 1.5
v -1 0 1.5
v -1 1 1.5
v -1 2 1.5
v -1 3 1.5
v 0 1 1.5
v 0 2 1.5
v 0 3 1.5
v 1 0 1.5
v 1 1 1.5
v 1 2 1.5
v 1 3 1.5
v 2 1 1.5
v 2 2 1.5
v -2 1 -0.5
v -2 2 -0.5
v -1 0 -0.5
v -1 1 -0.5
v -1 2 -0.5
v -1 3 -0.5
v 0 0 -0.5
v 0 1 -0.5
v 0 2 -0.5
v 0 3 -0.5
v 1 0 -0.5
v 1 1 -0.5
v 1 2 -0.5
v 1 3 -0.5
v 2 1 -0.5
v 2 2 -0.5
v -1 1 -1.5
v -1 2 -1.5
v 0 1 -1.5
v 0 2 -1.5
v 1 1 -1.5
v 1 2 -1.5
v -1 0 1.5
v 1 0 1.5
v -1 0 0.5
v 0 0 0.5
v 1 0 0.5
v -1 0 -0.5
v 0 0 -0.5
v 1 0 -0.5
v -1 1 2.5
v 0 1 2.5
v 1 1 2.5
v -2 1 1.5
v -1 1 1.5
v 0 1 1.5
v 1 1 1.5
v 2 1 1.5
v -2 1 0.5
v -1 1 0.5
v 1 1 0.5
v 2 1 0.5
v -2 1 -0.5
v -1 1 -0.5
v 0 1 -0.5
v 1 1 -0.5
v 2 1 -0.5
v -1 1 -1.5
v 0 1 -1.5
v 1 1 -1.5
v -1 2 2.5
v 0 2 2.5
v 1 2 2.5
v -2 2 1.5
v -1 2 1.5
v 0 2 1.5
v 1 2 1.5
v 2 2 1.5
v -2 2 0.5
v -1 2 0.5
v 1 2 0.5
v 2 2 0.5
v -2 2 -0.5
v -1 2 -0.5
v 0 2 -0.5
v 1 2 -0.5
v 2 2 -0.5
v -1 2 -1.5
v 0 2 -1.5
v 1 2 -1.5
v -1 3 1.5
v 0 3 1.5
v 1 3 1.5
v -1 3 0.5
v 0 3 0.5
v -1 3 -0.5
v 0 3 -0.5
v 1 3 -0.5

# faces
f 4/1/1 2/1/1 1/1/1
f 5/2/1 3/2/1 2/2/1
f 5/1/1 2/1/1 4/1/1
f 6/2/1 3/2/1 5/2/1
f 11/2/1 8/2/1 7/2/1
f 12/3/1 9/3/1 8/3/1
f 12/2/1 8/2/1 11/2/1
f 13/3/1 9/3/1 12/3/1
f 15/3/1 11/3/1 10/3/1
f 16/3/1 11/3/1 15/3/1
f 18/2/1 14/2/1 13/2/1
f 19/2/1 14/2/1 18/2/1
f 20/2/1 17/2/1 16/2/1
f 21/3/1 18/3/1 17/3/1
f 21/2/1 17/2/1 20/2/1
f 22/3/1 18/3/1 21/3/1
f 23/2/2 24/2/2 27/2/2
f 24/1/2 25/1/2 28/1/2
f 27/2/2 24/2/2 28/2/2
f 28/1/2 25/1/2 29/1/2
f 26/2/2 27/2/2 31/2/2
f 31/2/2 27/2/2 32/2/2
f 29/3/2 30/3/2 34/3/2
f 34/3/2 30/3/2 35/3/2
f 32/1/2 33/1/2 36/1/2
f 33/1/2 34/1/2 36/1/2
f 36/1/2 34/1/2 37/1/2
f 38/3/2 39/3/2 41/3/2
f 39/2/2 40/2/2 42/2/2
f 41/3/2 39/3/2 42/3/2
f 42/2/2 40/2/2 43/2/2
f 46/3/3 45/3/3 44/3/3
f 47/3/3 45/3/3 46/3/3
f 48/2/3 47/2/3 46/2/3
f 49/2/3 47/2/3 48/2/3
f 53/1/3 51/1/3 50/1/3
f 54/1/3 51/1/3 53/1/3
f 56/2/3 53/2/3 52/2/3
f 57/2/3 55/2/3 54/2/3
f 58/2/3 55/2/3 57/2/3
f 59/2/3 56/2/3 52/2/3
f 60/2/3 56/2/3 59/2/3
f 61/1/3 58/1/3 57/1/3
f 62/1/3 58/1/3 61/1/3
f 63/3/3 61/3/3 60/3/3
f 64/3/3 61/3/3 63/3/3
f 65/2/4 66/2/4 68/2/4
f 68/2/4 66/2/4 69/2/4
f 67/3/4 68/3/4 71/3/4
f 71/3/4 68/3/4 72/3/4
f 69/3/4 70/3/4 73/3/4
f 73/3/4 70/3/4 74/3/4
f 71/1/4 72/1/4 75/1/4
f 75/1/4 72/1/4 76/1/4
f 73/1/4 74/1/4 77/1/4
f 77/1/4 74/1/4 78/1/4
f 76/2/4 77/2/4 79/2/4
f 79/2/4 77/2/4 80/2/4
f 81/2/4 82/2/4 83/2/4
f 83/2/4 82/2/4 84/2/4
f 83/3/4 84/3/4 85/3/4
f 85/3/4 84/3/4 86/3/4
f 89/2/5 88/2/5 87/2/5
f 90/2/5 88/2/5 89/2/5
f 91/2/5 88/2/5 90/2/5
f 92/3/5 90/3/5 89/3/5
f 93/1/5 91/1/5 90/1/5
f 93/3/5 90/3/5 92/3/5
f 94/1/5 91/1/5 93/1/5
f 99/3/5 96/3/5 95/3/5
f 100/2/5 97/2/5 96/2/5
f 100/3/5 96/3/5 99/3/5
f 101/2/5 97/2/5 100/2/5
f 103/1/5 99/1/5 98/1/5
f 104/1/5 99/1/5 103/1/5
f 105/3/5 102/3/5 101/3/5
f 106/3/5 102/3/5 105/3/5
f 107/2/5 104/2/5 103/2/5
f 108/2/5 104/2/5 107/2/5
f 110/2/5 106/2/5 105/2/5
f 111/2/5 106/2/5 110/2/5
f 112/2/5 109/2/5 108/2/5
f 113/3/5 110/3/5 109/3/5
f 113/2/5 109/2/5 112/2/5
f 114/3/5 110/3/5 113/3/5
f 115/3/6 116/3/6 119/3/6
f 116/2/6 117/2/6 120/2/6
f 119/3/6 116/3/6 120/3/6
f 120/2/6 117/2/6 121/2/6
f 118/1/6 119/1/6 123/1/6
f 123/1/6 119/1/6 124/1/6
f 121/3/6 122/3/6 125/3/6
f 125/3/6 122/3/6 126/3/6
f 123/2/6 124/2/6 127/2/6
f 127/2/6 124/2/6 128/2/6
f 125/2/6 126/2/6 130/2/6
f 130/2/6 126/2/6 131/2/6
f 128/2/6 129/2/6 132/2/6
f 129/3/6 130/3/6 133/3/6
f 132/2/6 129/2/6 133/2/6
f 133/3/6 130/3/6 134/3/6
f 135/2/6 136/2/6 138/2/6
f 136/1/6 137/1/6 139/1/6
f 138/2/6 136/2/6 139/2/6
f 138/3/6 139/3/6 140/3/6
f 139/1/6 137/1/6 141/1/6
f 140/3/6 139/3/6 141/3/6
f 141/1/6 137/1/6 142/1/6
